<?xml version="1.0" standalone="no"?>
<!DOCTYPE svg PUBLIC "-//W3C//DTD SVG 20010904//EN"
 "http://www.w3.org/TR/2001/REC-SVG-20010904/DTD/svg10.dtd">
<svg version="1.0" xmlns="http://www.w3.org/2000/svg"
 width="1280.000000pt" height="720.000000pt" viewBox="0 0 1280.000000 720.000000"
 preserveAspectRatio="xMidYMid meet">

<g transform="translate(0.000000,720.000000) scale(0.100000,-0.100000)"
fill="#000000" stroke="none">
<path d="M4135 6141 c3 -31 14 -168 25 -306 11 -137 29 -358 40 -490 11 -132
29 -352 40 -490 11 -137 27 -329 35 -425 8 -96 19 -238 25 -315 6 -77 13 -160
15 -185 2 -25 16 -182 29 -350 48 -579 96 -1176 116 -1425 12 -137 27 -326 35
-418 8 -92 15 -174 15 -181 0 -8 8 -16 18 -19 9 -2 82 -23 162 -45 80 -23 354
-100 610 -172 256 -72 528 -149 605 -170 382 -107 498 -140 502 -144 2 -2 41
7 86 21 74 22 590 172 1217 353 129 38 307 89 395 115 87 25 160 47 161 48 1
1 10 90 18 197 9 107 19 215 21 240 3 25 16 180 30 345 14 165 30 347 35 405
5 58 16 184 25 281 8 96 17 200 20 230 4 49 10 120 46 534 5 66 23 273 40 460
16 187 36 419 44 515 8 96 17 198 20 225 3 28 12 133 20 235 8 102 17 205 20
230 5 43 20 217 50 575 7 88 12 162 10 164 -5 5 -1073 10 -2983 15 l-1553 4 6
-57z m3783 -390 l374 -1 -7 -77 c-3 -43 -8 -100 -10 -128 -3 -27 -7 -75 -10
-105 -3 -30 -7 -84 -10 -120 -3 -36 -7 -85 -10 -110 -2 -25 -7 -79 -10 -120
-3 -41 -7 -91 -10 -110 -2 -19 -7 -71 -10 -115 -3 -44 -8 -96 -10 -115 -2 -19
-7 -71 -10 -115 -3 -44 -7 -96 -10 -115 -2 -19 -7 -71 -10 -115 -3 -44 -8 -96
-10 -115 -2 -19 -7 -71 -10 -115 -7 -92 -14 -171 -20 -235 -2 -25 -7 -76 -10
-115 -3 -38 -7 -88 -9 -110 -3 -22 -7 -76 -11 -120 -3 -44 -8 -96 -10 -115 -2
-19 -6 -73 -10 -120 -3 -47 -8 -96 -10 -110 -2 -14 -6 -63 -10 -110 -3 -47 -8
-105 -10 -130 -2 -25 -6 -74 -10 -110 -3 -36 -7 -85 -10 -110 -2 -25 -7 -79
-10 -120 -3 -41 -8 -91 -10 -110 -2 -19 -7 -73 -10 -120 -3 -47 -8 -96 -10
-110 -2 -14 -6 -63 -10 -110 -3 -47 -8 -103 -10 -125 -1 -22 -6 -74 -10 -115
-3 -41 -9 -78 -13 -81 -5 -5 -245 -77 -382 -114 -8 -2 -148 -43 -310 -90 -162
-48 -302 -88 -310 -90 -8 -3 -132 -38 -275 -80 -143 -41 -260 -75 -260 -75 0
0 0 121 0 269 1 247 0 268 -16 264 -18 -5 -156 31 -514 132 -27 8 -81 23 -120
34 -38 11 -149 42 -245 69 -96 28 -206 58 -243 68 -51 13 -71 23 -77 38 -4 12
-13 93 -19 181 -7 88 -14 174 -16 190 -2 17 -11 116 -20 220 -8 105 -18 218
-21 253 l-6 62 293 -2 294 -3 7 -85 c21 -251 30 -355 32 -358 2 -1 79 -24 172
-51 93 -27 232 -68 310 -90 151 -44 179 -48 186 -28 3 6 4 208 4 447 l-1 435
-657 3 c-362 1 -658 5 -659 10 0 4 -2 18 -4 32 -2 14 -11 106 -20 205 -8 99
-18 200 -20 225 -3 25 -14 144 -25 265 -10 121 -33 369 -49 550 -17 182 -33
363 -37 403 l-6 72 739 0 739 0 -1 238 c-1 130 0 242 2 247 3 8 183 10 566 9
309 -1 730 -2 935 -3z"/>
<path d="M5586 4638 c2 -18 13 -127 24 -243 11 -115 23 -231 26 -257 l6 -48
387 0 387 0 0 290 0 290 -418 0 -417 0 5 -32z"/>
</g>
</svg>
